<svg width="32" height="33" viewBox="0 0 32 33" fill="none" xmlns="http://www.w3.org/2000/svg">
<circle cx="16" cy="17" r="16" fill="black"/>
<path d="M19.0616 9.008V9.488C18.5176 9.504 18.1016 9.568 17.8136 9.68C17.5416 9.776 17.3576 9.968 17.2616 10.256C17.1656 10.528 17.1176 10.96 17.1176 11.552V23.456C17.1176 24.032 17.1656 24.464 17.2616 24.752C17.3576 25.04 17.5416 25.232 17.8136 25.328C18.1016 25.424 18.5176 25.488 19.0616 25.52V26C18.6936 25.968 18.2296 25.952 17.6696 25.952C17.1256 25.936 16.5736 25.928 16.0136 25.928C15.3896 25.928 14.8056 25.936 14.2616 25.952C13.7176 25.952 13.2776 25.968 12.9416 26V25.52C13.4856 25.488 13.8936 25.424 14.1656 25.328C14.4536 25.232 14.6456 25.04 14.7416 24.752C14.8376 24.464 14.8856 24.032 14.8856 23.456V11.552C14.8856 10.96 14.8376 10.528 14.7416 10.256C14.6456 9.968 14.4536 9.776 14.1656 9.68C13.8936 9.568 13.4856 9.504 12.9416 9.488V9.008C13.2776 9.024 13.7176 9.04 14.2616 9.056C14.8056 9.072 15.3896 9.08 16.0136 9.08C16.5736 9.08 17.1256 9.072 17.6696 9.056C18.2296 9.04 18.6936 9.024 19.0616 9.008Z" fill="white"/>
</svg>
